PathFileType  4	(X/Y/Z) C:\Users\antoi\Documents\MyRepositories\mobilecap\ResultsAnalysis
DataRate	CameraRate	NumFrames	NumMarkers	Units	OrigDataRate	OrigDataStartFrame	OrigNumFrames
100.0	100.0	4	55	mm	100.0	340	679
Frame#	Time	r_knee			r_shank_antsup			r_ankle			r_calc			r_5meta			r_toe			L_knee			L_shank_antsup			L_ankle			L_calc			L_5meta			L_toe			r_mknee			r_mankle			L_mknee			L_mankle			r_sh2			r_sh3			r_sh4			L_sh2			L_sh3			r_thigh1			r_thigh2			r_thigh3			r_thigh4			r_thigh5			L_thigh1			L_thigh2			L_thigh3			L_thigh4			r.ASIS			r.PSIS			L.ASIS			L.PSIS			C7			R_Shoulder			L_Shoulder			R_Sternum			L_Sternum			R_humerus			R_elbow_med			R_elbow_lat			R_forearm			R_wrist_radius			R_wrist_ulna			L_humerus			L_elbow_med			L_elbow_lat			L_forearm			L_wrist_radius			L_wrist_ulna			R_HJC			L_HJC			R_HJC_reg			L_HJC_reg			
		X1	Y1	Z1	X2	Y2	Z2	X3	Y3	Z3	X4	Y4	Z4	X5	Y5	Z5	X6	Y6	Z6	X7	Y7	Z7	X8	Y8	Z8	X9	Y9	Z9	X10	Y10	Z10	X11	Y11	Z11	X12	Y12	Z12	X13	Y13	Z13	X14	Y14	Z14	X15	Y15	Z15	X16	Y16	Z16	X17	Y17	Z17	X18	Y18	Z18	X19	Y19	Z19	X20	Y20	Z20	X21	Y21	Z21	X22	Y22	Z22	X23	Y23	Z23	X24	Y24	Z24	X25	Y25	Z25	X26	Y26	Z26	X27	Y27	Z27	X28	Y28	Z28	X29	Y29	Z29	X30	Y30	Z30	X31	Y31	Z31	X32	Y32	Z32	X33	Y33	Z33	X34	Y34	Z34	X35	Y35	Z35	X36	Y36	Z36	X37	Y37	Z37	X38	Y38	Z38	X39	Y39	Z39	X40	Y40	Z40	X41	Y41	Z41	X42	Y42	Z42	X43	Y43	Z43	X44	Y44	Z44	X45	Y45	Z45	X46	Y46	Z46	X47	Y47	Z47	X48	Y48	Z48	X49	Y49	Z49	X50	Y50	Z50	X51	Y51	Z51	X52	Y52	Z52	X53	Y53	Z53	X54	Y54	Z54	X55	Y55	Z55	

340	3.39000000	-221.43636	473.96471	-434.13366	-189.98286	365.36915	-449.18560	-256.34149	90.04429	-466.00584	-302.48682	52.11982	-517.42499	-141.73678	39.88624	-434.75740	-105.44617	58.60969	-476.78685	-215.02827	475.69462	-787.21061	-179.72729	374.69617	-748.06555	-256.21678	88.14249	-770.97703	-296.55551	51.36319	-719.86562	-134.28499	36.55982	-789.03072	-94.63865	58.57326	-736.10662	-239.94168	474.10891	-566.77787	-231.14536	108.03982	-544.03617	-224.05178	474.12738	-655.41283	-226.10306	104.48912	-689.50346	-199.29818	253.86127	-459.87025	-245.20619	363.09030	-397.03104	-270.32362	256.99733	-417.90679	-234.30604	398.05212	-815.96085	-245.56816	277.16114	-826.94573	-124.36240	776.93961	-452.48597	-124.63412	665.79201	-447.97034	-168.62559	641.72208	-404.14477	-226.97308	775.18117	-404.32435	-221.65769	659.73106	-399.36483	-130.88739	767.78658	-784.54350	-125.47150	628.84125	-782.81155	-235.94173	769.23076	-823.56696	-232.47970	628.52485	-816.34526	-114.45517	939.53292	-486.10037	-293.45482	988.58552	-561.08839	-101.53417	938.04753	-732.55208	-291.37634	988.14535	-677.51309	-292.61027	1435.37482	-621.28978	-237.12530	1408.75715	-465.38907	-231.87867	1414.66375	-778.65450	-166.19836	1400.21995	-605.14025	-163.36296	1397.48344	-642.86103	-204.66324	1282.15865	-403.15988	-256.55504	1081.54728	-456.96128	-229.53627	1087.50428	-387.06871	-167.06385	978.29950	-370.00729	-124.97446	881.62396	-374.39036	-155.98974	870.82722	-357.49246	-196.92657	1263.81062	-838.47015	-243.84432	1073.03799	-776.21367	-226.72943	1078.62956	-848.41219	-169.58745	997.59539	-865.13993	-119.97075	874.92119	-851.49163	-145.69005	866.31859	-870.52183	-205.37965	871.02489	-515.77971	-192.80349	866.50461	-704.68538	-185.80007	871.91954	-521.70542	-182.89264	871.30382	-684.56279	
341	3.40000000	-221.42957	473.94016	-434.13828	-189.99196	365.36828	-449.17152	-256.35703	90.04663	-466.04848	-302.46616	52.11762	-517.40727	-141.73432	39.85440	-434.76201	-105.43963	58.60231	-476.79368	-215.01875	475.69063	-787.21027	-179.72616	374.68744	-748.05914	-256.21456	88.14626	-770.97905	-296.40856	51.11440	-719.66976	-134.27919	36.54625	-789.02494	-94.64457	58.56696	-736.09550	-239.83483	474.20637	-566.86907	-231.15107	108.03921	-544.04078	-224.05576	474.10959	-655.42696	-226.79155	106.18921	-689.29525	-199.15666	253.67145	-459.87057	-245.20254	363.06829	-397.03195	-270.05089	256.50479	-417.97899	-234.30559	398.05856	-815.96567	-245.56703	277.19885	-826.92230	-124.35580	776.93713	-452.51483	-124.61667	665.79709	-447.97604	-168.62411	641.68478	-404.18711	-226.94401	775.17159	-404.36418	-221.82723	659.65005	-399.53179	-130.96543	767.84369	-784.56617	-125.47309	628.80896	-782.80197	-235.94606	769.24188	-823.54693	-232.52090	628.51184	-816.28410	-114.44556	939.45360	-486.15993	-293.45750	988.57683	-561.08516	-101.52505	938.05505	-732.58507	-291.39383	988.14066	-677.53095	-292.64480	1435.34604	-621.28936	-237.12440	1408.71802	-465.40287	-231.91412	1414.65962	-778.65535	-166.24280	1400.22698	-605.18766	-163.40186	1397.47000	-642.84960	-204.64533	1282.16161	-403.12774	-256.47617	1081.53236	-456.87258	-229.49350	1087.50859	-387.02592	-166.99619	978.32541	-369.98814	-124.90064	881.63582	-374.38394	-155.87223	870.90777	-357.34612	-196.94309	1263.81538	-838.47304	-243.88810	1073.06462	-776.26622	-226.72771	1078.65139	-848.41193	-169.55371	997.62484	-865.16289	-119.95563	874.95973	-851.50479	-145.66646	866.35242	-870.56008	-205.38241	870.97325	-515.83514	-192.82079	866.51088	-704.74316	-185.80595	871.91639	-521.75344	-182.92008	871.30646	-684.59334	
342	3.41000000	-221.43315	473.93722	-434.12530	-190.00144	365.35756	-449.14768	-256.35544	90.03710	-466.06798	-302.44111	52.11791	-517.40834	-141.72944	39.82979	-434.75713	-105.45095	58.61374	-476.80009	-215.00195	475.66210	-787.19632	-179.71767	374.69027	-748.03678	-256.21049	88.14716	-770.98315	-296.24224	50.81932	-719.43858	-134.27808	36.53193	-789.02656	-94.65943	58.55542	-736.11798	-239.87226	474.16856	-566.83278	-231.15574	108.03090	-544.04298	-224.05599	474.12356	-655.42157	-227.22018	107.30136	-689.16076	-199.02834	253.45269	-459.86253	-245.20996	363.05354	-397.04847	-269.60339	255.70298	-418.09421	-234.30029	398.05537	-815.97082	-245.54790	277.18387	-826.92509	-124.36659	776.95020	-452.49229	-124.55132	665.78159	-448.07370	-168.56073	641.64601	-404.21025	-226.87433	775.15122	-404.39930	-221.95609	659.59449	-399.65521	-130.94508	767.83039	-784.54873	-125.47972	628.83891	-782.84397	-235.93790	769.25217	-823.52768	-232.53872	628.46767	-816.23349	-114.46402	939.40775	-486.16963	-293.46467	988.57504	-561.08671	-101.51135	938.07160	-732.63417	-291.41459	988.11807	-677.54210	-292.70645	1435.31458	-621.36150	-237.13734	1408.73147	-465.42029	-231.95258	1414.65803	-778.64941	-166.27514	1400.23606	-605.16618	-163.45602	1397.46841	-642.83310	-204.60912	1282.17164	-403.13577	-256.46713	1081.53027	-456.87150	-229.44866	1087.53009	-386.95724	-166.94747	978.33148	-369.96208	-124.82135	881.65745	-374.36880	-155.77923	870.95974	-357.27451	-196.95930	1263.82041	-838.47276	-243.91702	1073.08124	-776.28832	-226.72426	1078.66641	-848.41452	-169.50604	997.74756	-865.35977	-119.91171	875.00959	-851.59850	-145.64798	866.35646	-870.57067	-205.38964	870.94060	-515.87103	-192.82710	866.51514	-704.77986	-185.82571	871.93109	-521.74885	-182.95860	871.29202	-684.61581	
343	3.42000000	-221.43506	473.91814	-434.12629	-190.01078	365.32372	-449.11516	-256.36368	89.98526	-466.09905	-302.45425	52.09602	-517.42745	-141.72970	39.81295	-434.74365	-105.45228	58.62356	-476.80641	-214.99066	475.64334	-787.18843	-179.70867	374.69207	-748.02538	-256.21154	88.14422	-770.98659	-296.38421	51.01315	-719.57931	-134.28202	36.54341	-789.03341	-94.66870	58.52164	-736.18701	-240.04593	474.01101	-566.69081	-231.15076	108.02768	-544.03866	-223.98293	474.15922	-655.39648	-226.78544	106.27635	-689.28921	-199.03808	253.43089	-459.85725	-245.22453	363.04957	-397.06364	-269.56012	255.62272	-418.10766	-234.28914	398.05079	-815.97163	-245.52634	277.16610	-826.93655	-124.35114	776.93954	-452.45583	-124.52191	665.75324	-448.14009	-168.52107	641.61604	-404.20405	-226.82764	775.15759	-404.36354	-221.81887	659.63315	-399.52573	-130.95322	767.81586	-784.55215	-125.50520	628.89265	-782.93012	-235.94432	769.24513	-823.53038	-232.51502	628.47056	-816.27438	-114.48502	939.39835	-486.16773	-293.47356	988.57514	-561.09688	-101.51308	938.08590	-732.64735	-291.43706	988.07922	-677.54445	-292.76299	1435.31466	-621.43532	-237.15597	1408.76123	-465.42465	-231.98240	1414.65980	-778.63887	-166.32050	1400.25561	-605.06290	-163.51787	1397.50311	-642.79868	-204.57595	1282.15824	-403.16507	-256.39872	1081.54732	-456.82520	-229.40772	1087.55688	-386.89874	-166.90905	978.33416	-369.92451	-124.75331	881.68558	-374.31508	-155.69542	871.00514	-357.20564	-196.98370	1263.83805	-838.46722	-243.88088	1073.06453	-776.25604	-226.72215	1078.67377	-848.41557	-169.47138	997.86749	-865.55613	-119.88881	875.00329	-851.69704	-145.62087	866.36399	-870.56704	-205.39453	870.92991	-515.87865	-192.82681	866.50906	-704.78723	-185.84191	871.97406	-521.71818	-182.99341	871.28043	-684.59580	
